<svg width="40" height="40" viewBox="0 0 40 40" fill="none" xmlns="http://www.w3.org/2000/svg">
  <!-- Carré extérieur avec coin coupé -->
  <path d="M0 8C0 3.58172 3.58172 0 8 0H32C36.4183 0 40 3.58172 40 8V28L28 40H8C3.58172 40 0 36.4183 0 32V8Z" fill="#8B5CF6"/>
  
  <!-- Carré moyen avec coin coupé -->
  <path d="M8 13C8 10.7909 9.79086 9 12 9H28C30.2091 9 32 10.7909 32 13V24L24 32H12C9.79086 32 8 30.2091 8 28V13Z" fill="#A78BFA"/>
  
  <!-- Carré intérieur avec coin coupé -->
  <path d="M16 18C16 16.8954 16.8954 16 18 16H22C23.1046 16 24 16.8954 24 18V20L20 24H18C16.8954 24 16 23.1046 16 22V18Z" fill="#C4B5FD"/>
</svg>